# xmcd CD database file
#
# Track frame offsets:
#	150
#	21326
#	42800
#	63282
#	82971
#	100967
#	127897
#	158501
#	182234
#
# Disc length: 2699 seconds
#
# Revision: 0
# Processed by: cddbd v1.5.1PL0 Copyright (c) Steve Scherf et al.
# Submitted via: CDex 1.51
#
DISCID=660a8909
DTITLE=KARIN NOBBS and PHILIP M'BESS - BRANWEN
DYEAR=2004
DGENRE=New Age
TTITLE0=THE OAK
TTITLE1=LIFE IS GOOD
TTITLE2=BE TRUE
TTITLE3=RED COAT
TTITLE4=DESERT
TTITLE5=HIGHLAND
TTITLE6=REVERENSE TO ARTHUR FROM GUINEVERE
TTITLE7=BRANWEN
TTITLE8=LIKE A BOMB
EXTD=YEAR: 2004
EXTT0=
EXTT1=
EXTT2=
EXTT3=
EXTT4=
EXTT5=
EXTT6=
EXTT7=
EXTT8=
PLAYORDER=
